HIERARCHY
ROOT hip
{
	OFFSET 0.000000 0.000000 0.000000 
	CHANNELS 6 Xposition Yposition Zposition Xrotation Zrotation Yrotation
	JOINT abdomen
	{
		OFFSET 0.000000 3.402643 0.000000 
		CHANNELS 3 Xrotation Zrotation Yrotation
		JOINT chest
		{
			OFFSET 0.000000 8.438565 -0.680529 
			CHANNELS 3 Xrotation Zrotation Yrotation
			JOINT neck
			{
				OFFSET 0.000000 10.207942 -0.272212 
				CHANNELS 3 Xrotation Zrotation Yrotation
				JOINT head
				{
					OFFSET 0.000000 3.130431 0.000000 
					CHANNELS 3 Xrotation Zrotation Yrotation
					End Site
					{
						OFFSET 0.000000 3.130435 0.000000 
					}
				}
			}
			JOINT lCollar
			{
				OFFSET 3.470700 6.669187 -0.816635 
				CHANNELS 3 Yrotation Zrotation Xrotation
				JOINT lShldr
				{
					OFFSET 3.198488 0.000000 0.000000 
					CHANNELS 3 Zrotation Yrotation Xrotation
					JOINT lForeArm
					{
						OFFSET 10.139888 0.000000 0.000000 
						CHANNELS 3 Yrotation Zrotation Xrotation
						JOINT lHand
						{
							OFFSET 8.370511 0.000000 0.000000 
							CHANNELS 3 Zrotation Yrotation Xrotation
							End Site
							{
								OFFSET 4.083176 0.000000 0.000000 
							}
						}
					}
				}
			}
			JOINT rCollar
			{
				OFFSET -3.470700 6.669187 -0.816635 
				CHANNELS 3 Yrotation Zrotation Xrotation
				JOINT rShldr
				{
					OFFSET -3.198488 0.000000 0.000000 
					CHANNELS 3 Zrotation Yrotation Xrotation
					JOINT rForeArm
					{
						OFFSET -10.139888 0.000000 0.000000 
						CHANNELS 3 Yrotation Zrotation Xrotation
						JOINT rHand
						{
							OFFSET -8.370511 0.000000 0.000000 
							CHANNELS 3 Zrotation Yrotation Xrotation
							End Site
							{
								OFFSET -4.083176 0.000000 0.000000 
							}
						}
					}
				}
			}
		}
	}
	JOINT lThigh
	{
		OFFSET 5.308129 -1.633274 1.361059 
		CHANNELS 3 Xrotation Zrotation Yrotation
		JOINT lShin
		{
			OFFSET -2.041588 -20.007561 0.000000 
			CHANNELS 3 Xrotation Zrotation Yrotation
			JOINT lFoot
			{
				OFFSET 0.000000 -19.190928 -1.224953 
				CHANNELS 3 Xrotation Yrotation Zrotation
				End Site
				{
					OFFSET 0.000000 -2.449906 4.627600 
				}
			}
		}
	}
	JOINT rThigh
	{
		OFFSET -5.308129 -1.633274 1.361059 
		CHANNELS 3 Xrotation Zrotation Yrotation
		JOINT rShin
		{
			OFFSET 2.041588 -20.007561 0.000000 
			CHANNELS 3 Xrotation Zrotation Yrotation
			JOINT rFoot
			{
				OFFSET 0.000000 -19.190928 -1.224953 
				CHANNELS 3 Xrotation Yrotation Zrotation
				End Site
				{
					OFFSET 0.000000 -2.449906 4.627600 
				}
			}
		}
	}
}
MOTION
Frames: 6
Frame Time: 0.033333
-4.828322 49.772747 2.553040 -1.425781 -0.878906 158.378754 47.386246 -12.832616 -6.818104 -7.080078 9.335938 6.271116 51.063168 8.107644 2.471410 -46.708988 -16.689451 11.132813 2.000000 -2.000000 0.000000 -27.109377 -30.800779 2.314453 -106.943581 0.915449 -2.807473 73.503166 31.864290 46.345810 -2.000000 2.000000 0.000000 28.378904 -30.800779 4.873047 131.511642 -2.077600 -2.503649 66.446014 -40.851780 -68.823906 -23.620634 22.286665 29.580965 24.777859 -4.835707 -2.331765 7.315941 5.341010 -4.936667 -12.226062 -20.756750 -24.844761 33.942429 4.183598 2.768128 -8.554061 -5.811091 15.439371 
-4.922841 49.788506 2.466032 -1.611328 -0.878906 158.564301 47.357437 -12.924650 -6.656842 -7.255860 9.355469 6.240235 51.063168 8.107644 2.471410 -46.699223 -16.523436 11.152345 2.000000 -2.000000 0.000000 -27.060547 -30.869143 1.679687 -106.964905 0.375606 -3.176995 74.083275 31.877934 46.454865 -2.000000 2.000000 0.000000 28.613281 -30.849607 4.443359 131.694733 -1.926399 -2.748765 65.910103 -40.929638 -68.725227 -23.670008 22.190821 29.596872 24.582600 -4.761698 -2.291104 7.381940 5.586718 -4.852158 -12.206950 -20.739031 -25.004648 33.580261 4.208441 2.891621 -8.330724 -5.725355 15.521016 
-5.012892 49.796379 2.366699 -1.767578 -0.878906 158.574219 47.580315 -13.027247 -6.801898 -7.246093 9.521484 6.319974 51.063168 8.107644 2.471410 -46.699223 -16.523436 11.152345 2.000000 -2.000000 0.000000 -26.777344 -30.791016 1.743048 -106.943581 0.915449 -2.807473 74.087479 32.671005 46.651882 -2.000000 2.000000 0.000000 29.091797 -30.947262 4.516465 131.687134 -2.087916 -2.494470 66.212807 -40.780022 -68.970947 -23.817347 21.949581 29.957439 25.115274 -4.751464 -2.517241 6.505659 5.535044 -4.738578 -12.235926 -20.959948 -25.022327 33.416931 4.218451 2.735501 -8.089329 -5.611902 15.572969 
-5.108799 49.827888 2.272819 -1.943359 -0.878906 158.740082 47.580128 -13.230968 -6.789191 -7.402343 9.687502 6.349299 51.063168 8.107644 2.471410 -46.699223 -16.523436 10.976564 2.000000 -2.000000 0.000000 -26.621096 -30.468750 1.484375 -106.964905 0.375606 -3.176995 74.304138 32.507244 46.732513 -2.000000 2.000000 0.000000 29.033205 -30.810547 4.350468 131.862915 -2.087916 -2.494470 66.508965 -40.698616 -69.171288 -23.972914 21.722963 29.762539 24.924015 -4.742072 -2.325111 6.657957 5.498320 -4.396279 -12.216710 -20.963722 -25.191574 33.050419 4.247197 2.685184 -8.006256 -5.569664 15.871737 
-5.199037 49.843651 2.169124 -2.128906 -1.064453 158.759766 47.560738 -13.319593 -6.637140 -7.402343 9.687502 6.349299 51.063168 8.107644 2.471410 -46.699223 -16.523436 10.976564 2.000000 -2.000000 0.000000 -26.708984 -30.390623 1.655218 -106.943581 0.915449 -2.807473 73.570457 32.837151 46.741451 -2.000000 2.000000 0.000000 29.208982 -31.015623 3.623047 131.862915 -2.087916 -2.494470 67.415405 -40.866871 -69.733139 -24.168240 21.752493 29.720322 25.128609 -4.825805 -2.339620 6.170369 5.738235 -4.611077 -12.031223 -21.139523 -25.200657 32.699787 4.257126 2.795428 -7.939625 -5.399749 15.958725 
-5.302452 49.867279 2.065684 -2.314453 -1.064453 158.935364 47.775520 -13.434669 -6.776554 -7.568359 9.873048 6.388393 51.063168 8.107644 2.471410 -46.523441 -16.533201 10.917971 2.000000 -2.000000 0.000000 -26.621094 -30.000000 1.718750 -106.964905 0.375606 -3.176995 73.101364 32.046890 46.307167 -2.000000 2.000000 0.000000 29.082033 -30.986332 3.842628 131.862915 -2.087916 -2.494470 68.103264 -40.915359 -70.061302 -24.411076 21.699841 29.575293 25.303623 -4.727890 -2.373079 6.209039 5.600986 -4.307727 -12.031225 -21.139521 -25.200655 32.350872 4.286652 2.794486 -7.209921 -5.276321 16.310486 
